<svg width="781" height="435" viewBox="0 0 781 435" fill="none" xmlns="http://www.w3.org/2000/svg">
<path fill-rule="evenodd" clip-rule="evenodd" d="M402.252 0L252.859 228.966L380.904 231.318L364.197 309.567C358.352 336.095 348.235 357.677 333.847 374.314C319.459 390.5 302.823 403.09 283.939 412.082C265.504 421.075 245.721 426.92 224.588 429.617C203.456 432.765 183.223 434.339 163.889 434.339C141.407 434.339 122.073 432.765 105.887 429.617C89.7004 426.92 75.3123 422.873 62.7228 417.478C50.5829 412.082 39.5671 405.563 29.6753 397.919C19.7835 389.826 9.89177 381.058 0 371.616L21.582 269.776H148.377C148.377 271.124 147.702 274.497 146.353 279.892C145.454 284.838 144.33 290.908 142.981 298.102C141.632 305.296 140.283 313.164 138.934 321.707C138.035 330.25 137.585 338.119 137.585 345.313C137.585 349.809 138.035 354.53 138.934 359.476C139.834 364.422 141.407 369.143 143.655 373.639C145.904 377.686 149.051 381.283 153.098 384.43C157.594 387.128 162.989 388.477 169.284 388.477C180.974 388.477 190.192 383.756 196.936 374.314C204.13 364.422 210.425 346.662 215.82 321.033L283.939 0H402.252ZM357.417 428.269H535.504C581.366 428.269 619.809 420.85 650.833 406.012C682.307 390.725 707.711 370.717 727.045 345.987C746.379 321.258 760.092 293.156 768.186 261.682C776.729 230.208 781 198.06 781 165.238C781 134.663 777.403 108.809 770.209 87.6771C763.465 66.5446 753.123 49.4588 739.185 36.4197C725.696 23.3806 708.385 14.1632 687.253 8.76771C666.57 2.92257 642.29 0 614.414 0H442.289L411.59 145.681L547.922 147.948L569.901 45.8618H602.274C616.212 45.8618 625.879 49.9085 631.275 58.0017C637.12 65.6454 640.042 76.4364 640.042 90.3748C640.042 97.5688 639.143 109.709 637.345 126.795C635.996 143.88 633.523 163.214 629.926 184.796C626.778 206.378 622.282 228.86 616.437 252.24C611.042 275.171 604.072 296.303 595.529 315.637C587.436 334.522 577.544 350.259 565.854 362.848C554.613 374.988 541.574 381.058 526.737 381.058H497.736L545.299 160.132L357.417 428.269Z" fill="#FFFFFF"/>
</svg>
