<svg width="301" height="59" viewBox="0 0 301 59" fill="none" xmlns="http://www.w3.org/2000/svg">
<g clip-path="url(#clip0_3_30)">
<path d="M-0.297 12.636H2.838L10.032 31.842H10.098L17.523 12.636H20.46L11.319 36H8.646L-0.297 12.636ZM25.8498 12.636V36H23.0778V12.636H25.8498ZM34.4221 36H31.6501V12.636H35.1481L48.6781 32.04H48.7441V12.636H51.5161V36H48.0181L34.4881 16.596H34.4221V36Z" fill="#FFFFFF"/>
<path d="M79.187 12.636C85.589 12.636 90.902 16.959 90.902 24.318C90.902 31.842 85.391 36 79.253 36H70.475V12.636H79.187ZM78.527 33.426C84.368 33.426 87.932 30.258 87.932 24.318C87.932 18.411 84.335 15.21 78.527 15.21H73.247V33.426H78.527ZM95.364 36V12.636H110.049V15.21H98.136V22.536H109.257V25.11H98.136V33.426H110.643V36H95.364ZM121.756 12.042C124.363 12.042 126.541 12.768 128.29 14.781L126.013 16.761C125.089 15.276 123.439 14.616 121.756 14.616C118.819 14.616 116.773 16.134 116.773 18.543C116.773 20.82 118.258 21.81 121.789 22.866C127.135 24.45 128.686 26.43 128.686 29.763C128.686 33.954 125.221 36.594 120.469 36.594C117.268 36.594 114.628 35.373 113.275 33.36L115.651 31.413C116.674 33.096 118.555 34.02 120.634 34.02C123.241 34.02 125.716 32.403 125.716 29.961C125.716 26.826 123.208 26.463 119.281 25.11C115.288 23.724 113.803 21.843 113.803 18.774C113.803 14.715 117.169 12.042 121.756 12.042Z" fill="#FFFFFF"/>
<path d="M192.761 12.042C199.922 12.042 204.971 17.355 204.971 24.318C204.971 31.314 199.856 36.594 192.761 36.594C185.666 36.594 180.551 31.347 180.551 24.318C180.551 17.289 185.633 12.042 192.761 12.042ZM183.521 24.318C183.521 29.73 187.316 34.02 192.761 34.02C198.107 34.02 202.001 29.796 202.001 24.318C202.001 18.873 198.14 14.616 192.728 14.616C187.415 14.616 183.521 18.873 183.521 24.318ZM209.326 27.156V12.636H212.098V26.694C212.098 31.347 214.144 34.02 218.137 34.02C222.13 34.02 224.176 31.314 224.176 26.826V12.636H226.948V27.189C226.948 32.898 223.912 36.594 218.137 36.594C212.362 36.594 209.326 32.865 209.326 27.156ZM239.492 12.042C242.099 12.042 244.277 12.768 246.026 14.781L243.749 16.761C242.825 15.276 241.175 14.616 239.492 14.616C236.555 14.616 234.509 16.134 234.509 18.543C234.509 20.82 235.994 21.81 239.525 22.866C244.871 24.45 246.422 26.43 246.422 29.763C246.422 33.954 242.957 36.594 238.205 36.594C235.004 36.594 232.364 35.373 231.011 33.36L233.387 31.413C234.41 33.096 236.291 34.02 238.37 34.02C240.977 34.02 243.452 32.403 243.452 29.961C243.452 26.826 240.944 26.463 237.017 25.11C233.024 23.724 231.539 21.843 231.539 18.774C231.539 14.715 234.905 12.042 239.492 12.042ZM253.77 12.636V36H250.998V12.636H253.77ZM262.342 36H259.57V12.636H263.068L276.598 32.04H276.664V12.636H279.436V36H275.938L262.408 16.596H262.342V36ZM292.086 12.042C294.693 12.042 296.871 12.768 298.62 14.781L296.343 16.761C295.419 15.276 293.769 14.616 292.086 14.616C289.149 14.616 287.103 16.134 287.103 18.543C287.103 20.82 288.588 21.81 292.119 22.866C297.465 24.45 299.016 26.43 299.016 29.763C299.016 33.954 295.551 36.594 290.799 36.594C287.598 36.594 284.958 35.373 283.605 33.36L285.981 31.413C287.004 33.096 288.885 34.02 290.964 34.02C293.571 34.02 296.046 32.403 296.046 29.961C296.046 26.826 293.538 26.463 289.611 25.11C285.618 23.724 284.133 21.843 284.133 18.774C284.133 14.715 287.499 12.042 292.086 12.042Z" fill="#FFFFFF"/>
<path d="M164 9C156.667 11.8333 144.5 20.7 154.5 33.5M154.5 33.5C160 36.6667 171.9 39.2 175.5 24M154.5 33.5L140 51.5" stroke="#FFFFFF" stroke-width="3" stroke-linecap="round"/>
<ellipse cx="139.991" cy="51.1666" rx="9.59146" ry="1.91829" transform="rotate(37.7093 139.991 51.1666)" fill="#FFFFFF"/>
<path d="M162.5 27L154 22C153 21.5 153.943 31.2706 160.5 32.5C168.5 34 172.5 26.5 171 26.5L162.5 27Z" fill="#fe3300" stroke="#3A141E"/>
</g>
<defs>
<clipPath id="clip0_3_30">
<rect width="301" height="58.55" fill="white"/>
</clipPath>
</defs>
</svg>
